<svg xmlns="http://www.w3.org/2000/svg"  width="153" height="32.815" viewBox="0 0 153 32.815">
  <defs>
    <clipPath id="clip-path">
      <path id="Clip_2" data-name="Clip 2" d="M0,0H153V32.815H0Z" transform="translate(0 0.185)" fill="none"/>
    </clipPath>
  </defs>
  <g id="Group_8" data-name="Group 8" transform="translate(0 -0.185)">
    <g id="Group_3" data-name="Group 3">
      <path id="Clip_2-2" data-name="Clip 2" d="M0,0H153V32.815H0Z" transform="translate(0 0.185)" fill="none"/>
      <g id="Group_3-2" data-name="Group 3" clip-path="url(#clip-path)">
        <path id="Fill_1" data-name="Fill 1" d="M146.574,32.815c-2.549,0-4.293-.474-5.489-1.492-1.331-1.133-1.978-2.975-1.978-5.632V1.727a1.018,1.018,0,0,1,.949-.956L144.432,0h.153a.939.939,0,0,1,.8.956V5.612h6.64a.954.954,0,0,1,.949.957V9.375a.954.954,0,0,1-.949.957h-6.64V25.691c0,1.9.887,2.22,2.876,2.22h3.764c.622,0,.979.258.979.709v2.961c0,.474-.317.773-.918.864A41.322,41.322,0,0,1,146.574,32.815Zm-24.082,0a12.108,12.108,0,0,1-7.474-2.452c-2.614-2.092-3.94-5.283-3.94-9.484V17.363c0-7.57,4.233-12.089,11.322-12.089,6.927,0,11.23,4.632,11.23,12.089v2.653c0,.789-.3,1.173-.91,1.173l-.069,0H117.259v.154c0,2.258.735,6.045,5.661,6.045,3.282,0,6.369-.247,8.69-.463h.153c.528,0,.857.272.857.709v3.146c0,.793-.142,1.083-.979,1.234A42.277,42.277,0,0,1,122.492,32.815ZM122.4,10.7c-3.114,0-5.049,2.245-5.049,5.86v.184h10.006v-.184C127.357,12.947,125.458,10.7,122.4,10.7ZM71.91,32.815A10.884,10.884,0,0,1,63.5,29.438a12.442,12.442,0,0,1-2.853-8.466V17.117A12.446,12.446,0,0,1,63.5,8.639,10.893,10.893,0,0,1,71.91,5.274a10.884,10.884,0,0,1,8.407,3.377,12.442,12.442,0,0,1,2.853,8.466v3.855a12.446,12.446,0,0,1-2.853,8.477A10.893,10.893,0,0,1,71.91,32.815Zm0-22.113c-3.162,0-5.049,2.4-5.049,6.415v3.855c0,4.017,1.887,6.415,5.049,6.415s5.049-2.4,5.049-6.415V17.117C76.959,13.1,75.072,10.7,71.91,10.7Zm-60.5,22.113A12.108,12.108,0,0,1,3.94,30.363C1.326,28.271,0,25.08,0,20.879V17.363C0,9.793,4.233,5.274,11.322,5.274c6.927,0,11.23,4.632,11.23,12.089v2.653c0,.779-.307,1.173-.913,1.173l-.066,0H6.181v.154c0,2.258.735,6.045,5.661,6.045,3.282,0,6.369-.247,8.69-.463h.153c.528,0,.857.272.857.709v3.146c0,.793-.142,1.083-.979,1.234A42.276,42.276,0,0,1,11.414,32.815ZM11.322,10.7c-3.114,0-5.049,2.245-5.049,5.86v.184H16.279v-.184C16.279,12.947,14.38,10.7,11.322,10.7Zm94.462,21.743H89.26a1.907,1.907,0,0,1-1.9-1.913V28.5a2.336,2.336,0,0,1,.612-1.511L99.389,11.165l.042-.055a.378.378,0,0,0,.111-.223c0-.089-.116-.154-.275-.154H88.618a.782.782,0,0,1-.857-.771V6.6a.953.953,0,0,1,.949-.956h16.034a1.946,1.946,0,0,1,1.9,1.943V10.27a2.619,2.619,0,0,1-.245,1.079L95.411,26.523l-.092.155a.161.161,0,0,0,.045.118.323.323,0,0,0,.231.067h10.282a.782.782,0,0,1,.857.771v3.855A.954.954,0,0,1,105.784,32.445Z" transform="translate(0 0.185)" fill="#434346"/>
      </g>
    </g>
    <path id="Fill_4" data-name="Fill 4" d="M6.948,14l6.5-9.3a3.017,3.017,0,0,0-.6-4.117,2.7,2.7,0,0,0-3.923.629L0,14,8.925,26.791a2.705,2.705,0,0,0,3.923.629,3.021,3.021,0,0,0,.6-4.117Z" transform="translate(42 5)" fill="#434346"/>
    <path id="Fill_6" data-name="Fill 6" d="M7.052,14,.553,4.7A3.017,3.017,0,0,1,1.152.58a2.7,2.7,0,0,1,3.923.629L14,14,5.075,26.791a2.705,2.705,0,0,1-3.923.629,3.021,3.021,0,0,1-.6-4.117Z" transform="translate(26 5)" fill="#434346"/>
  </g>
</svg>